<?xml version="1.0" encoding="utf-8"?>
<!-- Generator: Adobe Illustrator 19.0.0, SVG Export Plug-In . SVG Version: 6.00 Build 0)  -->
<svg version="1.1" id="fire" xmlns="http://www.w3.org/2000/svg" xmlns:xlink="http://www.w3.org/1999/xlink" x="0px" y="0px"
	 viewBox="0 0 250 250" style="enable-background:new 0 0 250 250;" xml:space="preserve">
<g id="XMLID_1_">
	<path id="XMLID_10_" d="M151.6,244.5c-20.5,6.2-43.1,6.5-62.9-1.7c-19.7-8.2-36.1-25.5-40.6-46.4c-2-9.4-1.7-19.2-0.4-28.7
		c1.5-10.3,4.2-20.6,9.6-29.4c5.4-8.9,13.8-16.2,23.9-18.8c-5.5,1.4-9.1,6.6-11.6,11.6c-3.1,6.1-5.6,13-4.2,19.7
		c2.6,12.3,17.3,18.7,29.8,17c8.3-1.1,16.3-4.9,21.5-11.4c8.4-10.5,7.7-26.7-0.1-37.6s-21.6-16.8-35-17c10.5-7.8,26.8-6.2,35.6,3.4
		c-7.5-8.4-11.5-19.8-11.1-31c0.4-11.2,5.3-22.3,13.4-30.1c-4.7,2.4-6.3,8.2-6.8,13.5c-0.8,8.7,1.2,19,9,22.8
		c8.1,3.9,18.4-2,21.9-10.3c3.5-8.3,2-17.9-0.6-26.5c-4.7-15.7-12.8-30.3-23.5-42.7c26.6,13,45.5,40.7,47.9,70.2
		c0.7,8.3,0.1,16.9-3.6,24.2c-3.4,6.7-9.2,12-13.5,18.2c-4.3,6.2-7,14.6-3.4,21.3c2.5,4.6,7.5,7.3,12.6,8.1
		c8.2,1.2,17.4-2.9,20.2-10.7c2.8-7.8-3.4-17.9-11.7-17.3c8.5-3.1,18.8,0.5,24.2,7.7c5.5,7.2,6.3,17.5,2.8,25.9
		c-3.5,8.4-10.8,14.9-19.3,18.2c-6.3,2.5-13.4,3.3-19.1,7.1c-5.7,3.7-9.3,12.1-5,17.4c3.2,3.9,9,4.3,14.1,4c8-0.4,16.1-1.5,23.2-5.3
		c7-3.8,12.8-10.7,13.4-18.7c6.7,5.1,9.1,14.4,7.8,22.7c-1.3,8.3-5.7,15.8-10.6,22.6c-3.5,5-7.4,9.8-12.2,13.4
		c-5.5,4.2-12.1,6.6-18.5,9.1c-7.1,2.7-14.1,5.3-21.2,8"/>
</g>
</svg>
