<?xml version="1.0" encoding="utf-8"?>
<!-- Generator: Adobe Illustrator 19.0.0, SVG Export Plug-In . SVG Version: 6.00 Build 0)  -->
<svg version="1.1" id="crown" xmlns="http://www.w3.org/2000/svg" xmlns:xlink="http://www.w3.org/1999/xlink" x="0px" y="0px"
	 viewBox="0 0 250 250" style="enable-background:new 0 0 250 250;" xml:space="preserve">
<style type="text/css">
	.st0{fill:none;stroke:#000000;stroke-width:3;stroke-miterlimit:10;}
</style>
<path id="XMLID_1_" class="st0" d="M2.3,223.2c24.6,10.3,66.7,24.5,120.8,24.6c56.6,0.2,125.3-25.7,125.3-25.7
	c0-109,0-109.1,0-109.1"/>
<path id="XMLID_2_" class="st0" d="M248.5,113V64.5l-66.2,57.7l13.9,16.6l-8.3,18.9l-32-6.8c0,0,12.1-92.4,12.1-86.5
	s-47.2-47.4-47.2-47.4L77.6,70l35.2,77.9l-27,12.5l-27-18.5l15-17.4L2.1,62.1l2.6,164.1"/>
<path id="XMLID_4_" d="M123.3,45.8l21.5,20.9l4.2,4.1l-22.5,71.5l-29-69.6c0,0,21-25.7,23.8-26.9l2,38.6l14.8-18.5"/>
<path id="XMLID_3_" d="M13.7,92c0,2.7,5,69.7,5.7,67.3c0.7-2.3,36.3-37.7,36.3-37.7l-29.3,1.7l1.7-16.7l10.3,9l-0.3,10l14-6l-33.7-5
	"/>
<polyline id="XMLID_5_" points="205.7,121.6 220.2,109.2 226,104.3 238,94 238,153 221.8,133.7 240.3,117.7 217.3,131 219,113 
	232,132.7 215,116.3 "/>
</svg>
