<?xml version="1.0" encoding="utf-8"?>
<!-- Generator: Adobe Illustrator 19.0.0, SVG Export Plug-In . SVG Version: 6.00 Build 0)  -->
<svg version="1.1" id="Layer_1" xmlns="http://www.w3.org/2000/svg" xmlns:xlink="http://www.w3.org/1999/xlink" x="0px" y="0px"
	 viewBox="0 0 250 250" style="enable-background:new 0 0 250 250;" xml:space="preserve">
<style type="text/css">
	.st0{fill:none;stroke:#000000;stroke-width:3;stroke-miterlimit:10;}
</style>
<path id="XMLID_12_" d="M63.7,174.5c0,0,0.1-0.1,0.3-0.4l-9.4-10l-11,10.3l9.8,10.4l21.2,22.5l9.7,10.3l11-10.3L85,196.5l-0.7,0.8
	C84.3,197.2,62.6,175.6,63.7,174.5z"/>
<path id="XMLID_13_" d="M74.6,187.3l0.9-1L64,174.2c-0.2,0.2-0.3,0.3-0.3,0.4c-1.1,1.1,20.6,22.7,20.6,22.7l0.7-0.8l-9.6-10.1
	L74.6,187.3z"/>
<path id="XMLID_14_" d="M-0.3,232.2l27.9,17.6c0.6-0.9,43-41.5,43-41.5l-21.4-23L-0.3,232.2z"/>
<path id="XMLID_5_" d="M-101.5,93.9"/>
<g id="XMLID_1_">
	<line id="XMLID_6_" class="st0" x1="225.3" y1="26.3" x2="231.9" y2="24.1"/>
	<line id="XMLID_20_" class="st0" x1="184.8" y1="69.5" x2="225.3" y2="26.3"/>
	<path id="XMLID_21_" class="st0" d="M249,2.5h-19.8c0,0-56.5,59.3-103.1,108.3"/>
	<line id="XMLID_22_" class="st0" x1="115.4" y1="120.3" x2="115.4" y2="120.3"/>
	<path id="XMLID_23_" class="st0" d="M106,130.2c-21.3,22.5-37.6,39.6-40.1,42.2l11.3,12"/>
	<path id="XMLID_24_" class="st0" d="M126.4,108.8c-3.7,3.9-7.4,7.8-10.9,11.5"/>
	<path id="XMLID_25_" class="st0" d="M106,130.2c3-3.2,6.2-6.5,9.4-9.9"/>
	<line id="XMLID_26_" class="st0" x1="249.5" y1="0.5" x2="225.3" y2="26.3"/>
	<path id="XMLID_27_" class="st0" d="M225.3,26.3l-30.2,10c0,0-5.4,17.1-10.3,33.2"/>
	<polyline id="XMLID_28_" class="st0" points="247.5,1 247.5,19.8 144.7,130.4 	"/>
	<line id="XMLID_29_" class="st0" x1="135.7" y1="141.9" x2="135.7" y2="141.9"/>
	<line id="XMLID_30_" class="st0" x1="231.9" y1="24.1" x2="247.7" y2="18.9"/>
	<line id="XMLID_31_" class="st0" x1="146.7" y1="130.1" x2="135.7" y2="141.9"/>
	<polyline id="XMLID_32_" class="st0" points="126.3,152 86.7,194.5 77.2,184.5 	"/>
	<line id="XMLID_33_" class="st0" x1="135.7" y1="141.9" x2="126.3" y2="152"/>
	<path id="XMLID_34_" class="st0" d="M249.5,0.5c0,0-7.5,10-17.6,23.6"/>
	<path id="XMLID_35_" class="st0" d="M184.8,69.5c-4.6,14.9-8.8,29.1-8.1,28.4c1-1,34-45.3,55.2-73.8"/>
	<line id="XMLID_36_" class="st0" x1="126.4" y1="132" x2="126.4" y2="132"/>
	<line id="XMLID_37_" class="st0" x1="137.3" y1="120.3" x2="184.8" y2="69.5"/>
	<line id="XMLID_38_" class="st0" x1="126.4" y1="132" x2="137.3" y2="120.3"/>
	<line id="XMLID_39_" class="st0" x1="117" y1="142" x2="126.4" y2="132"/>
	<line id="XMLID_40_" class="st0" x1="117" y1="142" x2="77.2" y2="184.5"/>
	<path id="XMLID_41_" class="st0" d="M3.2,0.5c0,0,7.5,10,17.6,23.6"/>
	<line id="XMLID_42_" class="st0" x1="67.9" y1="69.5" x2="67.9" y2="69.5"/>
	<path id="XMLID_43_" class="st0" d="M76.1,97.9C76,97.9,76,97.9,76.1,97.9c-1-1.1-34-45.3-55.3-73.8"/>
	<path id="XMLID_44_" class="st0" d="M76.1,97.9c0.4,0-3.7-13.8-8.2-28.4"/>
	<line id="XMLID_45_" class="st0" x1="27.4" y1="26.3" x2="20.8" y2="24.1"/>
	<line id="XMLID_46_" class="st0" x1="27.4" y1="26.3" x2="67.9" y2="69.5"/>
	<line id="XMLID_47_" class="st0" x1="115.4" y1="120.3" x2="126.4" y2="132"/>
	<path id="XMLID_48_" class="st0" d="M126.4,108.8c3.7,3.9,7.4,7.8,10.9,11.5"/>
	<line id="XMLID_49_" class="st0" x1="67.9" y1="69.5" x2="115.4" y2="120.3"/>
	<path id="XMLID_50_" class="st0" d="M3,2.5h20.5c0,0,56.2,59.3,102.8,108.3"/>
	<line id="XMLID_51_" class="st0" x1="135.7" y1="141.9" x2="126.4" y2="132"/>
	<path id="XMLID_52_" class="st0" d="M146.7,130.1c-3-3.2-6.2-6.5-9.4-9.8"/>
	<path id="XMLID_53_" class="st0" d="M146.7,130.1c21.4,22.5,37.7,39.7,40.2,42.3l-11.3,12l-39.9-42.6"/>
	<line id="XMLID_54_" class="st0" x1="27.4" y1="26.3" x2="3.2" y2="0.5"/>
	<path id="XMLID_55_" class="st0" d="M27.4,26.3l30.2,10c0,0,5.4,17.1,10.4,33.2"/>
	<path id="XMLID_56_" class="st0" d="M76.1,97.9c0.3-0.3-3.7-14-8.2-28.4l0,0"/>
	<path id="XMLID_57_" class="st0" d="M76.1,97.9C76,97.9,76,97.9,76.1,97.9C75,96.9,42,52.6,20.8,24.1l-0.1,0"/>
	<line id="XMLID_58_" class="st0" x1="106" y1="130.2" x2="117" y2="142"/>
	<path id="XMLID_59_" class="st0" d="M20.6,24.1L5,18.9L20.6,24.1C20.7,24.1,20.7,24.1,20.6,24.1"/>
	<line id="XMLID_60_" class="st0" x1="126.4" y1="132" x2="135.7" y2="141.9"/>
	<line id="XMLID_61_" class="st0" x1="117" y1="142" x2="126.3" y2="152"/>
	<polyline id="XMLID_62_" class="st0" points="126.3,152 166,194.5 175.6,184.5 135.7,141.9 	"/>
	<line id="XMLID_63_" class="st0" x1="67.9" y1="69.5" x2="115.4" y2="120.3"/>
	<line id="XMLID_64_" class="st0" x1="115.4" y1="120.3" x2="126.4" y2="132"/>
	<path id="XMLID_65_" class="st0" d="M19.4,24.1C9.3,10.5,0.5,0.5,0.5,0.5v19.3l103.7,110.4"/>
</g>
<path id="XMLID_4_" d="M186.6,174.5c0,0-0.1-0.1-0.3-0.4l9.4-10l11,10.3l-9.8,10.4l-21.2,22.5l-9.7,10.3l-11-10.3l10.2-10.8l0.7,0.8
	C166,197.2,187.7,175.6,186.6,174.5z"/>
<path id="XMLID_3_" d="M175.8,187.3l-0.9-1l11.5-12.2c0.2,0.2,0.3,0.3,0.3,0.4c1.1,1.1-20.6,22.7-20.6,22.7l-0.7-0.8l9.6-10.1
	L175.8,187.3z"/>
<path id="XMLID_2_" d="M250.7,232.2l-27.9,17.6c-0.6-0.9-43-41.5-43-41.5l21.4-23L250.7,232.2z"/>
</svg>
