<?xml version="1.0" encoding="utf-8"?>
<!-- Generator: Adobe Illustrator 19.0.0, SVG Export Plug-In . SVG Version: 6.00 Build 0)  -->
<svg version="1.1" id="owl" xmlns="http://www.w3.org/2000/svg" xmlns:xlink="http://www.w3.org/1999/xlink" x="0px" y="0px"
	 viewBox="0 0 250 250" style="enable-background:new 0 0 250 250;" xml:space="preserve">
<style type="text/css">
	.st0{fill:#FFFFFF;}
	.st1{stroke:#FFFFFF;stroke-miterlimit:10;}
</style>
<ellipse id="XMLID_10_" class="st0" cx="-116.3" cy="69.3" rx="0.3" ry="0"/>
<g id="XMLID_13_">
	<path id="XMLID_14_" class="st1" d="M72.8,137.7c-19.3,0-34.9-15.6-34.9-34.9s15.6-34.9,34.9-34.9c1.5,0,2.9,0.1,4.4,0.3L74.7,59
		L49.9,38.5C28.8,58.6,15.6,87,15.6,118.4c0,59.6,47.3,108.2,106.3,110.3l-27.5-98.6C88.5,134.8,81,137.7,72.8,137.7z"/>
	<path id="XMLID_15_" class="st1" d="M151.2,55.5l42.9-23.9C175.3,16.8,151.7,8.1,126,8.1c-25.5,0-48.9,8.6-67.6,23.1l41.7,23.2
		L151.2,55.5z"/>
	<path id="XMLID_16_" class="st1" d="M203.2,39.5l-23,19.5L177,69.9c2.1-0.4,4.2-0.6,6.4-0.6c19.7,0,35.7,16,35.7,35.7
		s-16,35.7-35.7,35.7c-9.3,0-17.8-3.6-24.1-9.4l-28.1,97.4c8.2-0.4,16.2-1.6,23.8-3.7c46.9-12.8,81.3-55.6,81.3-106.5
		C236.4,87.5,223.6,59.6,203.2,39.5z"/>
	<path id="XMLID_17_" class="st1" d="M122,228.7l4.5,16.3l4.7-16.3c-1.7,0.1-3.5,0.1-5.2,0.1C124.6,228.8,123.3,228.8,122,228.7z"/>
	<path id="XMLID_18_" class="st1" d="M248,1.5l-53.9,30.1c3.2,2.5,6.2,5.2,9.1,8L248,1.5z"/>
	<path id="XMLID_19_" class="st1" d="M5,1.5l44.9,37c2.7-2.6,5.6-5,8.6-7.4L5,1.5z"/>
	<path id="XMLID_20_" class="st1" d="M151.2,55.5l-24.4,13.6l-26.6-14.8l-27-0.6l1.5,5.3l20.2,16.6c0.2,0.1,0.3,0.2,0.5,0.4
		l32.9,27.2l51.9-44.1l0.8-2.9L151.2,55.5z"/>
	<path id="XMLID_21_" class="st1" d="M77.2,68.1l17.3,62.1c8.1-6.4,13.3-16.3,13.3-27.4c0-10.7-4.9-20.4-12.5-26.8l-0.5-0.4
		C89.9,71.6,83.8,68.9,77.2,68.1z"/>
	<path id="XMLID_22_" class="st1" d="M147.8,105c0,10.4,4.4,19.8,11.5,26.3L177,69.9C160.4,72.9,147.8,87.5,147.8,105z"/>
	<polygon id="XMLID_23_" class="st1" points="116.9,182.2 126.5,210.6 138.1,182.2 127.1,158.9 	"/>
	<path id="XMLID_26_" class="st1" d="M75.4,102.7c-5.9,0-10.6,4.8-10.6,10.6S69.5,124,75.4,124S86,119.2,86,113.4
		S81.2,102.7,75.4,102.7z M75.8,116.3c-1.5,0-2.7-1.2-2.7-2.7s1.2-2.7,2.7-2.7s2.7,1.2,2.7,2.7S77.3,116.3,75.8,116.3z"/>
	<path id="XMLID_29_" class="st1" d="M181.2,124.5c6.2,0,11.1-5,11.1-11.1s-5-11.1-11.1-11.1c-6.2,0-11.1,5-11.1,11.1
		S175,124.5,181.2,124.5z M183.8,111c1.5,0,2.7,1.2,2.7,2.7s-1.2,2.7-2.7,2.7s-2.7-1.2-2.7-2.7S182.4,111,183.8,111z"/>
</g>
</svg>
