<?xml version="1.0" encoding="utf-8"?>
<!-- Generator: Adobe Illustrator 19.0.0, SVG Export Plug-In . SVG Version: 6.00 Build 0)  -->
<svg version="1.1" id="chains" xmlns="http://www.w3.org/2000/svg" xmlns:xlink="http://www.w3.org/1999/xlink" x="0px" y="0px"
	 viewBox="0 0 250 250" style="enable-background:new 0 0 250 250;" xml:space="preserve">
<style type="text/css">
	.st0{fill:none;stroke:#000000;stroke-width:6;stroke-miterlimit:10;}
	.st1{fill:none;stroke:#FFFFFF;stroke-width:8;stroke-miterlimit:10;}
	.st2{fill:none;stroke:#000000;stroke-width:5;stroke-miterlimit:10;}
</style>
<path id="XMLID_3_" class="st0" d="M160.9,195.1c-0.6-0.7-0.9-1.6-0.9-2.5l0,0v-28.8c0-2.1,1.7-3.8,3.8-3.8h28.5
	c1.1,0,2.1,0.5,2.8,1.3l53.9,61.4c0.6,0.7,0.9,1.6,0.9,2.5v21c0,2.1-1.7,3.8-3.8,3.8h-35.5c-1.1,0-2.1-0.5-2.9-1.3L160.9,195.1z"/>
<line id="XMLID_4_" class="st1" x1="140" y1="172" x2="168" y2="172"/>
<path id="XMLID_2_" class="st0" d="M78.9,117.1c-0.6-0.7-0.9-1.6-0.9-2.5V90.1c0-4.5,3.6-8.1,8.1-8.1H106c3.8,0,7.4,1.6,10,4.5
	l49.3,56.2c1.7,2,2.7,4.6,2.7,7.2V172h-36c-3.2,0-6.2-1.4-8.3-3.8L78.9,117.1z"/>
<line id="XMLID_5_" class="st1" x1="51" y1="92" x2="90" y2="92"/>
<path id="XMLID_1_" class="st2" d="M2.9,37.1C2.3,36.4,2,35.5,2,34.6v0V2l29.3,0.7c3.4,0.1,6.7,1.6,8.9,4.2l50,57
	c1.6,1.8,2.4,4.1,2.3,6.5L92,92H56.8c-3.7,0-7.2-1.6-9.6-4.4L2.9,37.1z"/>
</svg>
