<?xml version="1.0" encoding="utf-8"?>
<!-- Generator: Adobe Illustrator 19.0.0, SVG Export Plug-In . SVG Version: 6.00 Build 0)  -->
<svg version="1.1" id="Layer_1" xmlns="http://www.w3.org/2000/svg" xmlns:xlink="http://www.w3.org/1999/xlink" x="0px" y="0px"
	 viewBox="0 0 250 250" style="enable-background:new 0 0 250 250;" xml:space="preserve">
<style type="text/css">
	.st0{fill:none;stroke:#000000;stroke-width:3;stroke-miterlimit:10;}
</style>
<polygon id="XMLID_18_" class="st0" points="104.5,24 104.5,157.5 150.5,157.5 150.5,26.4 127.5,1 "/>
<g id="XMLID_4_">
	<path id="XMLID_5_" class="st0" d="M128.6,167.8c0-0.8,0-1.7,0-2.8"/>
	<polyline id="XMLID_6_" class="st0" points="128,150.5 151.8,150.5 128.4,170 	"/>
	<line id="XMLID_7_" class="st0" x1="128.6" y1="167.8" x2="126.6" y2="166.7"/>
	<path id="XMLID_8_" class="st0" d="M128.4,129.9c0,5.6,0.1,10.8,0.1,15.6"/>
	<path id="XMLID_9_" class="st0" d="M128.5,145.5c0,8.3,0.1,15.1,0.1,19.5"/>
	<path id="XMLID_10_" class="st0" d="M128.6,170.8c0,0,0-1.1,0-3"/>
	<polyline id="XMLID_11_" class="st0" points="128.4,129.9 151.8,114.3 128.2,100.2 	"/>
	<path id="XMLID_12_" class="st0" d="M128.4,129.9c-0.1-9.2-0.1-19.3-0.2-29.7"/>
	<polyline id="XMLID_13_" class="st0" points="105,159.5 79.5,159.5 79.5,176.5 121.4,176.5 133.3,176.5 169.5,176.5 169.5,154.9 
		149.3,154.4 132,170.5 128,170.3 	"/>
	<path id="XMLID_14_" class="st0" d="M128.2,100.2c-0.3-45.7-0.7-96.8-0.9-97.8c-0.5-1.8-20.2,85.2-20.2,85.2L128.2,100.2"/>
	<line id="XMLID_15_" class="st0" x1="128.6" y1="165" x2="126.6" y2="166.7"/>
	<polyline id="XMLID_16_" class="st0" points="128.1,134.9 105,150.5 128,150.5 	"/>
	<polyline id="XMLID_17_" class="st0" points="126.6,166.7 107.6,155.7 122.2,170.5 126.6,166.7 	"/>
</g>
<path id="XMLID_1_" d="M105.6,178v58c0,7.8,5.7,14,12.8,14h20.2c7.1,0,12.8-6.3,12.8-14v-58H105.6z"/>
</svg>
